<svg width="485" height="485" viewBox="0 0 485 485" fill="none" xmlns="http://www.w3.org/2000/svg">
<path d="M1.4768 225.023C-2.78482 283.795 14.5748 342.099 50.2904 388.968C86.006 435.837 137.616 468.042 195.413 479.524C253.21 491.005 313.211 480.973 364.129 451.315C415.048 421.656 453.375 374.414 471.901 318.476C490.428 262.538 487.877 201.758 464.728 147.568C441.58 93.3791 399.429 49.5152 346.204 24.2274C292.98 -1.06049 232.35 -6.0296 175.718 10.2548C119.086 26.5391 70.3561 62.9547 38.6933 112.652C62.5156 75.2609 133.11 59.255 175.718 47.003C218.326 34.7511 280.48 59.2512 320.525 78.2771C360.569 97.3031 392.282 130.305 409.699 171.076C427.115 211.846 429.034 257.576 415.096 299.662C401.157 341.749 372.32 377.292 334.011 399.607C295.701 421.921 250.558 429.469 207.073 420.83C163.588 412.192 109.691 394.692 82.8199 359.429C55.9484 324.166 -1.72954 269.242 1.4768 225.023Z" fill="#43B97F"/>
</svg>
