<svg width="42" height="34" viewBox="0 0 42 34" fill="none" xmlns="http://www.w3.org/2000/svg">
<path d="M33 33L40.648 25.352C40.8731 25.1272 40.9997 24.8222 41 24.504V14C41 13.2044 40.6839 12.4413 40.1213 11.8787C39.5587 11.3161 38.7956 11 38 11C37.2044 11 36.4413 11.3161 35.8787 11.8787C35.3161 12.4413 35 13.2044 35 14V23" stroke="#43B97F" stroke-width="2" stroke-linecap="round" stroke-linejoin="round"/>
<path d="M33 25L34.716 23.284C34.8062 23.194 34.8776 23.087 34.9264 22.9693C34.9751 22.8516 35.0001 22.7254 35 22.598C34.9997 22.4182 34.9494 22.2419 34.8548 22.089C34.7601 21.9361 34.6248 21.8125 34.464 21.732L33.578 21.29C32.8274 20.9147 31.9777 20.785 31.1493 20.9192C30.3209 21.0535 29.5557 21.4449 28.962 22.038L27.172 23.828C26.4218 24.578 26.0002 25.5952 26 26.656V33M9 33L1.352 25.352C1.12689 25.1272 1.00028 24.8222 1 24.504V14C1 13.2044 1.31607 12.4413 1.87868 11.8787C2.44129 11.3161 3.20435 11 4 11C4.79565 11 5.55871 11.3161 6.12132 11.8787C6.68393 12.4413 7 13.2044 7 14V23" stroke="#43B97F" stroke-width="2" stroke-linecap="round" stroke-linejoin="round"/>
<path d="M9 25L7.284 23.284C7.19393 23.1939 7.1225 23.087 7.07377 22.9692C7.02504 22.8515 6.99997 22.7254 7 22.598C7 22.232 7.208 21.898 7.536 21.732L8.422 21.29C9.17262 20.9147 10.0223 20.785 10.8507 20.9192C11.6791 21.0535 12.4443 21.4449 13.038 22.038L14.828 23.828C15.5782 24.578 15.9998 25.5952 16 26.656V33M24.334 17H17.666V12.334H13V5.666H17.666V1H24.334V5.666H29V12.334H24.334V17Z" stroke="#43B97F" stroke-width="2" stroke-linecap="round" stroke-linejoin="round"/>
</svg>
