<svg width="170" height="52" viewBox="0 0 170 52" fill="none" xmlns="http://www.w3.org/2000/svg">
<path d="M64.4531 23.3349C63.5269 23.123 62.6472 22.7438 61.8571 22.216C61.6275 22.0493 61.4367 21.8349 61.2977 21.5874C61.1787 21.3279 61.1268 21.0426 61.1468 20.7577C61.1487 20.3192 61.3069 19.8957 61.5931 19.5634C61.7077 19.4087 61.8562 19.2823 62.0273 19.194C62.1984 19.1057 62.3875 19.0579 62.58 19.0543C62.7766 19.0534 62.9721 19.0853 63.1583 19.1486C63.4014 19.2367 63.6334 19.3527 63.8497 19.4943C64.4407 19.834 65.0751 20.0919 65.7354 20.2612C66.4322 20.4201 67.1454 20.496 67.86 20.4874C68.5822 20.528 69.3033 20.3898 69.9594 20.0852C70.1743 19.9776 70.3562 19.8138 70.4856 19.6113C70.6151 19.4088 70.6874 19.1751 70.6948 18.9349C70.6847 18.7397 70.6206 18.5511 70.5096 18.3902C70.3986 18.2293 70.2451 18.1023 70.0663 18.0234C69.2697 17.6502 68.4225 17.396 67.552 17.2692C66.3101 17.0427 65.1033 16.6538 63.9628 16.1126C63.2213 15.7747 62.5975 15.2232 62.1714 14.5286C61.8159 13.8498 61.6508 13.0874 61.6937 12.3223C61.7073 11.3411 62.038 10.3907 62.6366 9.61315C63.2868 8.78273 64.1396 8.13338 65.1131 7.72744C66.2209 7.26232 67.4129 7.0312 68.6143 7.04858C69.6342 7.03535 70.6512 7.1601 71.6377 7.41944C72.4991 7.65766 73.3104 8.04947 74.0326 8.57601C74.2732 8.73585 74.4716 8.9515 74.6108 9.20458C74.7295 9.46216 74.7835 9.74484 74.768 10.028C74.7674 10.4665 74.614 10.891 74.3343 11.2286C74.221 11.3817 74.0745 11.5071 73.9057 11.5953C73.737 11.6835 73.5503 11.7322 73.36 11.7377C73.1705 11.738 72.982 11.7105 72.8006 11.656C72.5506 11.5602 72.3106 11.4402 72.084 11.2977C72.0086 11.2474 71.7886 11.128 71.4554 10.9394C71.0585 10.7302 70.6358 10.5738 70.1983 10.4743C69.6767 10.3547 69.1431 10.2956 68.608 10.2983C67.9498 10.2733 67.2974 10.4298 66.7223 10.7509C66.5029 10.8641 66.3178 11.034 66.1863 11.2429C66.0548 11.4518 65.9816 11.6921 65.9743 11.9389C65.9284 12.1863 65.9827 12.4417 66.1251 12.6492C66.3949 12.8992 66.717 13.086 67.068 13.196C67.7401 13.4298 68.4294 13.6105 69.1297 13.7366C70.3411 13.9706 71.5162 14.3637 72.6246 14.9057C73.3541 15.2568 73.9704 15.8056 74.4034 16.4897C74.7612 17.1386 74.931 17.8743 74.8937 18.6143C74.8838 19.5942 74.5526 20.5437 73.9508 21.3172C73.3125 22.1298 72.4651 22.7534 71.4994 23.1212C70.3465 23.5619 69.1192 23.7753 67.8851 23.7497C66.7284 23.7541 65.5755 23.6147 64.4531 23.3349Z" fill="#262A45"/>
<path d="M78.3131 23.0394C78.1388 22.8427 78.0065 22.6124 77.9243 22.3627C77.8422 22.1131 77.8119 21.8492 77.8354 21.5874L78.1057 9.22342C78.0944 8.95705 78.137 8.69113 78.2309 8.44163C78.3249 8.19212 78.4683 7.96416 78.6525 7.77142C78.8527 7.59291 79.0864 7.45597 79.34 7.36857C79.5936 7.28116 79.862 7.24503 80.1297 7.26228H88.1942C88.7279 7.22262 89.2588 7.36923 89.6965 7.67713C89.8682 7.82494 90.0022 8.01149 90.0874 8.22135C90.1727 8.43121 90.2067 8.65836 90.1868 8.88399C90.1868 9.99028 89.4702 10.5434 88.1188 10.5434H82.2479L82.1788 13.636H87.5845C88.9359 13.636 89.6022 14.1828 89.5771 15.2766C89.5865 15.5058 89.5425 15.7341 89.4487 15.9436C89.3549 16.153 89.2138 16.3378 89.0365 16.4834C88.5908 16.7894 88.0547 16.9357 87.5154 16.8983H82.1222L82.0468 20.2674H87.9177C89.2691 20.2674 89.9354 20.8206 89.9102 21.9268C89.9181 22.155 89.8735 22.3819 89.7798 22.5901C89.686 22.7983 89.5457 22.9821 89.3697 23.1274C88.9253 23.4362 88.3881 23.5827 87.8485 23.5423H79.7714C79.5069 23.5614 79.2414 23.5267 78.9907 23.4402C78.7401 23.3538 78.5095 23.2175 78.3131 23.0394Z" fill="#262A45"/>
<path d="M107.165 7.72113C107.354 7.92295 107.499 8.16178 107.591 8.42253C107.683 8.68327 107.719 8.96026 107.699 9.23599L107.429 21.5937C107.441 21.8764 107.393 22.1584 107.289 22.4215C107.185 22.6846 107.027 22.9229 106.825 23.1209C106.622 23.3189 106.381 23.4721 106.116 23.5707C105.85 23.6693 105.567 23.711 105.285 23.6931C105.007 23.708 104.729 23.6655 104.469 23.5681C104.208 23.4708 103.97 23.3208 103.77 23.1274C103.579 22.9232 103.433 22.6812 103.341 22.4171C103.249 22.1529 103.213 21.8725 103.236 21.5937L103.337 16.9737H96.6234L96.5228 21.6C96.5339 21.8824 96.4856 22.164 96.3812 22.4267C96.2768 22.6893 96.1186 22.9272 95.9166 23.125C95.7147 23.3228 95.4736 23.476 95.2088 23.575C94.9441 23.6739 94.6615 23.7163 94.3794 23.6994C94.0988 23.7259 93.8158 23.6892 93.5512 23.5919C93.2866 23.4946 93.0472 23.3392 92.8507 23.1372C92.6541 22.9352 92.5053 22.6916 92.4152 22.4245C92.3251 22.1574 92.2961 21.8735 92.3303 21.5937L92.6005 9.23599C92.5965 8.95397 92.6501 8.6741 92.7582 8.41358C92.8663 8.15307 93.0266 7.91742 93.2291 7.72113C93.4355 7.52947 93.6779 7.38075 93.9423 7.28363C94.2067 7.18651 94.4877 7.14293 94.7691 7.15542C95.0469 7.14128 95.3246 7.18419 95.5851 7.28148C95.8456 7.37878 96.0835 7.5284 96.284 7.72113C96.4736 7.92251 96.6191 8.16128 96.7111 8.42214C96.8031 8.683 96.8396 8.9602 96.8183 9.23599L96.724 13.636H103.437L103.531 9.23599C103.528 8.95497 103.582 8.67619 103.69 8.41676C103.798 8.15734 103.958 7.92275 104.16 7.72742C104.366 7.53575 104.609 7.38703 104.873 7.28991C105.138 7.19279 105.419 7.14921 105.7 7.1617C105.969 7.15357 106.237 7.19882 106.488 7.29484C106.74 7.39086 106.969 7.53575 107.165 7.72113Z" fill="#262A45"/>
<path d="M126.927 21.8074C126.923 22.0561 126.865 22.301 126.757 22.5248C126.648 22.7486 126.491 22.9457 126.298 23.1023C125.904 23.4444 125.399 23.632 124.878 23.6303C124.533 23.6356 124.194 23.5394 123.903 23.3537C123.598 23.1523 123.362 22.863 123.225 22.524L122.206 20.192H114.663L113.551 22.5177C113.392 22.8598 113.139 23.1497 112.822 23.3537C112.52 23.5354 112.174 23.631 111.822 23.6303C111.3 23.6297 110.795 23.4399 110.402 23.096C110.201 22.9459 110.04 22.75 109.93 22.5248C109.821 22.2995 109.767 22.0514 109.773 21.8011C109.785 21.5031 109.862 21.2113 109.999 20.9463L116.43 8.42515C116.629 8.01899 116.95 7.68502 117.347 7.46972C117.75 7.25132 118.2 7.13691 118.658 7.13691C119.116 7.13691 119.566 7.25132 119.969 7.46972C120.359 7.68705 120.67 8.02418 120.855 8.43144L126.751 20.9526C126.873 21.2208 126.933 21.5129 126.927 21.8074ZM120.836 16.9989L118.617 11.8446L116.172 16.9989H120.836Z" fill="#262A45"/>
<path d="M131.434 23.1149C131.236 22.9176 131.084 22.6802 130.986 22.4189C130.889 22.1575 130.848 21.8783 130.868 21.6L131.113 10.7194H127.826C127.284 10.761 126.745 10.6096 126.305 10.292C126.133 10.1234 126.001 9.91837 125.92 9.69204C125.838 9.46571 125.809 9.22391 125.833 8.98457C125.819 8.74302 125.859 8.50136 125.95 8.27731C126.042 8.05325 126.182 7.85248 126.361 7.68971C126.813 7.38139 127.356 7.23515 127.901 7.27485H138.807C139.345 7.23276 139.88 7.37947 140.322 7.68971C140.494 7.85498 140.626 8.0577 140.708 8.28222C140.79 8.50674 140.819 8.74704 140.793 8.98457C140.806 9.22696 140.766 9.46929 140.675 9.69423C140.583 9.91917 140.444 10.1212 140.265 10.2857C139.82 10.6042 139.277 10.7555 138.731 10.7131H135.444L135.205 21.5937C135.21 21.8758 135.156 22.1558 135.048 22.4163C134.94 22.6769 134.779 22.9125 134.577 23.1086C134.143 23.4965 133.574 23.6995 132.993 23.6743C132.709 23.6898 132.424 23.6483 132.157 23.5522C131.889 23.4561 131.643 23.3074 131.434 23.1149Z" fill="#262A45"/>
<path d="M73.3223 41.8966C73.4987 42.051 73.6345 42.2464 73.7178 42.4656C73.8011 42.6848 73.8293 42.9211 73.8 43.1537C73.8106 43.3887 73.7694 43.6231 73.6792 43.8404C73.5891 44.0577 73.4522 44.2524 73.2783 44.4108C72.8229 44.7152 72.2781 44.857 71.732 44.8131H62.4292C62.1809 44.8267 61.9326 44.7884 61.6999 44.7008C61.4672 44.6131 61.2553 44.478 61.0777 44.304C60.9175 44.1377 60.793 43.9404 60.7119 43.7242C60.6308 43.508 60.5949 43.2775 60.6063 43.0468C60.6319 42.4979 60.8324 41.9715 61.1783 41.5446L68.564 31.8646H62.9069C62.362 31.9076 61.8188 31.7635 61.3669 31.456C61.1929 31.2999 61.0592 31.104 60.9771 30.8852C60.8951 30.6663 60.8671 30.4309 60.8955 30.1988C60.8848 29.9633 60.9266 29.7282 61.0179 29.5108C61.1092 29.2934 61.2477 29.099 61.4235 28.9417C61.8842 28.6382 62.432 28.4946 62.9823 28.5331H71.9269C72.1712 28.5202 72.4155 28.5576 72.6448 28.643C72.874 28.7284 73.0832 28.86 73.2595 29.0297C73.4216 29.1946 73.5473 29.3917 73.6285 29.6083C73.7098 29.8248 73.7446 30.056 73.7309 30.2868C73.708 30.8429 73.51 31.3775 73.1652 31.8143L65.7795 41.5006H71.8137C72.3467 41.46 72.8779 41.5995 73.3223 41.8966Z" fill="#262A45"/>
<path d="M76.8046 44.3983C76.6148 44.1932 76.4693 43.9511 76.3774 43.6872C76.2855 43.4233 76.249 43.1432 76.2703 42.8646L76.5406 30.5069C76.538 30.2251 76.5923 29.9456 76.7003 29.6853C76.8083 29.425 76.9678 29.1892 77.1692 28.992C77.3796 28.7987 77.6263 28.6492 77.8949 28.5521C78.1636 28.4549 78.449 28.4122 78.7343 28.4263C79.0208 28.4099 79.3077 28.4516 79.5778 28.5488C79.8478 28.646 80.0954 28.7968 80.3057 28.992C80.4989 29.1914 80.6476 29.4296 80.7418 29.6907C80.8361 29.9519 80.8739 30.2301 80.8526 30.5069L80.5823 42.8646C80.5883 43.1506 80.5357 43.4348 80.4276 43.6997C80.3194 43.9646 80.1582 44.2045 79.9537 44.4046C79.5169 44.7963 78.9431 44.9996 78.3572 44.9703C78.0728 44.9885 77.7878 44.947 77.5204 44.8485C77.253 44.75 77.0092 44.5967 76.8046 44.3983Z" fill="#262A45"/>
<path d="M98.5154 28.992C98.7034 29.1919 98.8479 29.4286 98.9399 29.6872C99.0319 29.9458 99.0692 30.2206 99.0497 30.4943L98.7794 42.852C98.7903 43.4189 98.5782 43.9675 98.1885 44.3794C97.9976 44.5696 97.7696 44.7184 97.5188 44.8168C97.2679 44.9152 96.9996 44.961 96.7303 44.9514C96.4317 44.9741 96.1321 44.9229 95.8581 44.8023C95.584 44.6817 95.3438 44.4955 95.1588 44.26L88.2446 35.504L88.0811 42.852C88.0955 43.4142 87.8903 43.9598 87.5091 44.3732C87.3225 44.5677 87.0963 44.7201 86.8459 44.8198C86.5954 44.9196 86.3264 44.9645 86.0571 44.9514C85.7909 44.9617 85.5256 44.9155 85.2786 44.8159C85.0316 44.7162 84.8085 44.5653 84.624 44.3732C84.4376 44.1672 84.2948 43.9258 84.2041 43.6633C84.1134 43.4009 84.0766 43.1228 84.096 42.8457L84.3726 30.488C84.367 30.211 84.4164 29.9356 84.5178 29.6778C84.6192 29.42 84.7707 29.1848 84.9634 28.9857C85.1538 28.7945 85.3815 28.6444 85.6324 28.545C85.8833 28.4455 86.152 28.3987 86.4217 28.4074C86.7164 28.3918 87.0106 28.447 87.2796 28.5684C87.5486 28.6898 87.7847 28.8738 87.968 29.1052L94.8823 37.836L95.0457 30.4943C95.0313 29.9329 95.2391 29.3885 95.624 28.9794C95.8133 28.7911 96.0394 28.6437 96.2881 28.5464C96.5368 28.4491 96.8028 28.4039 97.0697 28.4137C97.3376 28.4044 97.6046 28.451 97.8535 28.5506C98.1024 28.6501 98.3278 28.8005 98.5154 28.992Z" fill="#262A45"/>
<path d="M102.827 44.3292C102.649 44.1337 102.514 43.9028 102.43 43.6515C102.347 43.4003 102.317 43.1343 102.343 42.8709L102.62 30.5132C102.609 30.2464 102.651 29.98 102.744 29.7297C102.836 29.4793 102.978 29.2499 103.161 29.0549C103.362 28.8765 103.597 28.7396 103.852 28.6523C104.106 28.5649 104.375 28.5287 104.644 28.5457H109.346C110.96 28.5013 112.562 28.8372 114.022 29.5263C115.273 30.1367 116.304 31.1179 116.977 32.336C117.678 33.6723 118.008 35.1722 117.932 36.6794C117.943 38.2202 117.551 39.737 116.794 41.0794C116.078 42.3036 115.009 43.2829 113.727 43.8892C112.242 44.5699 110.62 44.901 108.987 44.8572H104.279C104.014 44.8732 103.748 44.8346 103.499 44.7437C103.249 44.6529 103.02 44.5118 102.827 44.3292ZM108.761 41.4189C110.075 41.5144 111.375 41.0977 112.388 40.256C113.205 39.4766 113.624 38.2865 113.645 36.6857C113.683 35.0829 113.306 33.8949 112.526 33.128C111.747 32.3612 110.553 31.9714 108.95 31.9714H106.857L106.643 41.4L108.761 41.4189Z" fill="#262A45"/>
<path d="M136.387 43.0908C136.382 43.3393 136.323 43.5838 136.215 43.8074C136.106 44.0309 135.951 44.2283 135.758 44.3857C135.364 44.7278 134.86 44.9154 134.338 44.9137C133.982 44.9202 133.633 44.8177 133.338 44.6199C133.042 44.4221 132.814 44.1386 132.685 43.8074L131.685 41.4691H124.142L122.979 43.8011C122.83 44.133 122.588 44.4145 122.283 44.612C121.977 44.8094 121.621 44.9142 121.257 44.9137C120.732 44.9146 120.225 44.7247 119.83 44.3794C119.631 44.2282 119.47 44.0322 119.361 43.8072C119.252 43.5822 119.197 43.3346 119.202 43.0846C119.214 42.7865 119.291 42.4947 119.428 42.2297L125.858 29.7086C126.059 29.3038 126.38 28.9704 126.776 28.7531C127.178 28.5347 127.629 28.4203 128.087 28.4203C128.544 28.4203 128.995 28.5347 129.397 28.7531C129.789 28.9663 130.1 29.3019 130.283 29.7086L136.179 42.236C136.312 42.5018 136.383 42.7939 136.387 43.0908ZM130.29 38.2823L128.077 33.128L125.632 38.2823H130.29Z" fill="#262A45"/>
<path d="M152.56 36.0823C152.709 36.231 152.825 36.4102 152.899 36.6076C152.972 36.8051 153.003 37.0161 152.987 37.2263L152.899 41.2492C152.904 41.8446 152.832 42.4383 152.686 43.0154C152.586 43.3939 152.365 43.7293 152.057 43.9709C151.64 44.2624 151.174 44.4754 150.681 44.5994C150.014 44.7601 149.338 44.8798 148.657 44.9577C147.97 45.0371 147.28 45.0791 146.589 45.0835C144.988 45.1211 143.402 44.7763 141.962 44.0777C140.703 43.4417 139.671 42.4318 139.008 41.1863C138.309 39.8043 137.982 38.264 138.059 36.7172C138.063 35.1775 138.457 33.664 139.203 32.3172C139.918 31.0769 140.977 30.0704 142.251 29.4195C143.661 28.7169 145.221 28.3675 146.796 28.4012C147.782 28.3893 148.764 28.5184 149.713 28.7846C150.566 29.0404 151.371 29.4354 152.095 29.9537C152.332 30.1121 152.524 30.3285 152.654 30.5823C152.776 30.8413 152.83 31.1266 152.811 31.412C152.813 31.8525 152.664 32.2802 152.39 32.6252C152.276 32.7751 152.13 32.8976 151.963 32.9836C151.795 33.0695 151.611 33.1167 151.422 33.1217C151.208 33.1243 150.995 33.0881 150.794 33.0149C150.558 32.9146 150.331 32.7947 150.115 32.6566C149.608 32.3739 149.07 32.1503 148.512 31.9903C147.978 31.8426 147.426 31.7707 146.871 31.7766C146.259 31.7353 145.646 31.8262 145.072 32.0431C144.498 32.26 143.978 32.5979 143.546 33.0337C142.813 33.8718 142.425 35.129 142.383 36.8052C142.342 38.4814 142.689 39.772 143.427 40.6772C144.164 41.5153 145.308 41.9343 146.859 41.9343C147.604 41.9344 148.348 41.8586 149.078 41.708L149.147 38.6783H147.469C147.04 38.7083 146.616 38.5709 146.287 38.2949C146.147 38.1549 146.04 37.9863 145.971 37.8008C145.903 37.6153 145.875 37.4171 145.891 37.22C145.884 37.0203 145.921 36.8216 145.998 36.6373C146.075 36.4529 146.191 36.2872 146.337 36.1514C146.673 35.8775 147.099 35.7405 147.531 35.768H151.378C151.798 35.7217 152.219 35.8338 152.56 36.0823Z" fill="#262A45"/>
<path d="M156.778 44.4234C156.588 44.2183 156.442 43.9762 156.351 43.7123C156.259 43.4484 156.222 43.1684 156.243 42.8897L156.514 30.5257C156.512 30.2449 156.566 29.9665 156.674 29.7073C156.782 29.4481 156.941 29.2134 157.142 29.0171C157.353 28.8238 157.599 28.6743 157.868 28.5772C158.137 28.4801 158.422 28.4373 158.707 28.4514C158.994 28.435 159.281 28.4767 159.551 28.5739C159.821 28.6711 160.069 28.8219 160.279 29.0171C160.472 29.2165 160.621 29.4547 160.715 29.7158C160.809 29.977 160.847 30.2552 160.826 30.532L160.555 42.8897C160.562 43.1748 160.509 43.4582 160.401 43.7221C160.293 43.986 160.131 44.2247 159.927 44.4234C159.49 44.8151 158.916 45.0184 158.33 44.9891C158.046 45.007 157.762 44.966 157.495 44.8686C157.228 44.7713 156.983 44.6197 156.778 44.4234Z" fill="#262A45"/>
<path d="M32 48C44.1503 48 54 38.1503 54 26C54 13.8497 44.1503 4 32 4C19.8497 4 10 13.8497 10 26C10 38.1503 19.8497 48 32 48Z" fill="white"/>
<path d="M26.896 37.8988V38.2006C27.1851 38.3137 27.4743 38.4268 27.7697 38.5274C27.4743 38.3263 27.1789 38.1188 26.896 37.8988ZM26.896 23.1651H20.2583C20.0949 23.9948 19.8874 24.8937 19.6297 25.9623C19.0879 27.9585 19.1316 30.0684 19.7554 32.0406H22.4457C22.1081 31.064 21.8619 30.0581 21.7103 29.036C22.9674 31.0034 24.2246 31.8897 25.2806 32.0406H25.9657C26.4501 31.9344 26.8949 31.6942 27.2495 31.3475C27.604 31.0007 27.854 30.5613 27.9709 30.0794C28.5491 28.3194 28.1217 25.6794 26.8646 23.1651H26.896ZM26.2674 30.3937C25.9771 30.5597 25.6441 30.6359 25.3105 30.6127C24.9768 30.5894 24.6576 30.4678 24.3931 30.2631C24.1286 30.0584 23.9308 29.7798 23.8246 29.4627C23.7185 29.1456 23.7087 28.8041 23.7966 28.4814C23.8846 28.1587 24.0662 27.8694 24.3186 27.6499C24.571 27.4305 24.8827 27.2908 25.2145 27.2486C25.5463 27.2064 25.8831 27.2635 26.1824 27.4127C26.4817 27.5619 26.73 27.7965 26.896 28.0868C27.0053 28.282 27.0746 28.497 27.0999 28.7192C27.1252 28.9415 27.106 29.1665 27.0433 29.3813C26.9807 29.596 26.876 29.7961 26.7352 29.97C26.5944 30.1438 26.4205 30.2878 26.2234 30.3937H26.2674ZM48.2674 24.4348C47.857 24.022 47.3664 23.6976 46.826 23.4814C46.2855 23.2652 45.7065 23.1618 45.1246 23.1777H35.696V13.7491C35.7062 13.1685 35.5994 12.5918 35.3819 12.0533C35.1644 11.5149 34.8407 11.0257 34.43 10.6151C34.0194 10.2045 33.5303 9.88075 32.9918 9.66324C32.4534 9.44574 31.8766 9.33891 31.296 9.34913C30.7154 9.33891 30.1386 9.44574 29.6002 9.66324C29.0617 9.88075 28.5726 10.2045 28.162 10.6151C27.7513 11.0257 27.4276 11.5149 27.2101 12.0533C26.9926 12.5918 26.8858 13.1685 26.896 13.7491V20.9526C31.2583 24.3091 31.7297 28.4954 30.7743 33.6434C29.6994 39.376 30.416 41.9594 32.7166 45.5863C33.3796 45.3827 33.9807 45.0152 34.464 44.5177C34.8729 44.1044 35.1949 43.6134 35.4108 43.0736C35.6268 42.5338 35.7323 41.9561 35.7211 41.3748V32.0406H45.1497C45.736 32.0553 46.3188 31.9465 46.8603 31.7213C47.4017 31.496 47.8897 31.1593 48.2926 30.7331C48.7012 30.3197 49.023 29.8286 49.2389 29.2888C49.4548 28.749 49.5605 28.1715 49.5497 27.5903C49.5591 27.0012 49.4461 26.4165 49.2178 25.8733C48.9895 25.3302 48.6509 24.8403 48.2234 24.4348H48.2674Z" fill="#262A45"/>
<path fill-rule="evenodd" clip-rule="evenodd" d="M33.3766 24.3343C32.0063 21.82 29.6931 20.1166 26.896 18.6269C25.0103 17.64 22.9674 16.7412 20.8177 15.7732C20.9709 18.2511 20.7827 20.7384 20.2583 23.1652C20.0949 23.9949 19.8874 24.8937 19.6297 25.9623C19.0879 27.9585 19.1316 30.0685 19.7554 32.0406C20.8429 35.108 23.6149 36.9183 26.8771 38.2006C27.1663 38.3137 27.4554 38.4269 27.7509 38.5274C27.4554 38.3263 27.16 38.1189 26.8771 37.8989C24.8377 36.4504 23.2998 34.4029 22.4771 32.0406C22.1395 31.064 21.8933 30.0581 21.7417 29.036C22.9989 31.0034 24.256 31.8897 25.312 32.0406C25.5388 32.0783 25.7703 32.0783 25.9971 32.0406C26.4815 31.9344 26.9264 31.6943 27.2809 31.3475C27.6354 31.0008 27.8854 30.5614 28.0023 30.0794C28.5617 28.3194 28.1343 25.6794 26.8771 23.1652C26.0936 21.5953 25.0283 20.1827 23.7343 18.9977C24.8431 19.5454 25.8957 20.2001 26.8771 20.9526C31.2394 24.3092 31.7109 28.4954 30.7554 33.6434C29.6806 39.376 30.3971 41.9594 32.6977 45.5863C32.9009 45.5257 33.0986 45.4479 33.2886 45.3537C30.4537 36.2017 37.4183 31.7954 33.3766 24.3343ZM26.2234 30.3937C25.9331 30.5598 25.6001 30.636 25.2665 30.6127C24.9328 30.5895 24.6136 30.4678 24.3491 30.2631C24.0846 30.0584 23.8868 29.7799 23.7806 29.4627C23.6745 29.1456 23.6647 28.8041 23.7526 28.4814C23.8406 28.1587 24.0222 27.8694 24.2746 27.65C24.527 27.4305 24.8387 27.2908 25.1705 27.2486C25.5023 27.2064 25.8391 27.2635 26.1384 27.4127C26.4377 27.5619 26.686 27.7965 26.852 28.0869C26.963 28.2794 27.0348 28.492 27.0633 28.7124C27.0918 28.9328 27.0764 29.1567 27.0179 29.3711C26.9595 29.5856 26.8592 29.7863 26.7229 29.9618C26.5865 30.1373 26.4168 30.2841 26.2234 30.3937Z" fill="#3FD182"/>
</svg>
