<svg width="235" height="72" viewBox="0 0 235 72" fill="none" xmlns="http://www.w3.org/2000/svg">
<path d="M89.097 32.3099C87.8166 32.0165 86.6005 31.4915 85.5084 30.7607C85.191 30.5298 84.9272 30.2329 84.7351 29.8903C84.5705 29.531 84.4988 29.1359 84.5265 28.7415C84.529 28.1343 84.7478 27.5479 85.1434 27.0879C85.3018 26.8736 85.5071 26.6986 85.7436 26.5764C85.9801 26.4541 86.2415 26.3879 86.5076 26.3829C86.7795 26.3817 87.0496 26.4258 87.307 26.5135C87.6431 26.6354 87.9638 26.796 88.2628 26.9921C89.0798 27.4624 89.9567 27.8196 90.8695 28.054C91.8328 28.274 92.8186 28.3792 93.8064 28.3673C94.8048 28.4234 95.8016 28.2321 96.7086 27.8103C97.0057 27.6613 97.257 27.4346 97.436 27.1542C97.615 26.8738 97.7149 26.5502 97.7252 26.2176C97.7112 25.9473 97.6225 25.6862 97.4691 25.4634C97.3157 25.2406 97.1036 25.0648 96.8563 24.9556C95.7551 24.4387 94.5841 24.0868 93.3807 23.9112C91.6639 23.5976 89.9958 23.0592 88.4192 22.3098C87.3942 21.842 86.5319 21.0783 85.9428 20.1165C85.4513 19.1767 85.2231 18.121 85.2825 17.0617C85.3012 15.7032 85.7585 14.3872 86.5858 13.3106C87.4847 12.1607 88.6636 11.2617 90.0093 10.6996C91.5407 10.0556 93.1884 9.73555 94.8491 9.75962C96.259 9.7413 97.6649 9.91403 99.0286 10.2731C100.219 10.603 101.341 11.1455 102.339 11.8745C102.672 12.0958 102.946 12.3944 103.139 12.7448C103.303 13.1015 103.377 13.4929 103.356 13.885C103.355 14.4921 103.143 15.0799 102.756 15.5473C102.6 15.7593 102.397 15.9329 102.164 16.0551C101.93 16.1772 101.673 16.2446 101.409 16.2523C101.147 16.2527 100.887 16.2146 100.636 16.1391C100.291 16.0064 99.9588 15.8403 99.6455 15.643C99.5412 15.5734 99.2371 15.4081 98.7766 15.147C98.2279 14.8572 97.6436 14.6407 97.0388 14.5029C96.3178 14.3373 95.5801 14.2555 94.8404 14.2592C93.9306 14.2246 93.0288 14.4414 92.2337 14.8859C91.9305 15.0426 91.6747 15.2779 91.4928 15.5671C91.311 15.8564 91.2098 16.1891 91.1997 16.5308C91.1363 16.8733 91.2114 17.2271 91.4083 17.5143C91.7812 17.8605 92.2264 18.1191 92.7116 18.2714C93.6407 18.5951 94.5936 18.8454 95.5616 19.0199C97.2362 19.3439 98.8606 19.8882 100.393 20.6387C101.401 21.1248 102.253 21.8848 102.852 22.832C103.346 23.7304 103.581 24.7491 103.53 25.7737C103.516 27.1304 103.058 28.4452 102.226 29.5161C101.344 30.6413 100.172 31.5047 98.8374 32.014C97.2437 32.6242 95.5471 32.9197 93.8412 32.8843C92.2421 32.8903 90.6485 32.6974 89.097 32.3099Z" fill="#262A45"/>
<path d="M108.256 31.901C108.015 31.6286 107.832 31.3097 107.719 30.964C107.605 30.6183 107.564 30.253 107.596 29.8905L107.97 12.7711C107.954 12.4023 108.013 12.0341 108.143 11.6886C108.273 11.3432 108.471 11.0275 108.726 10.7606C109.002 10.5135 109.325 10.3239 109.676 10.2029C110.026 10.0818 110.397 10.0318 110.767 10.0557H121.916C122.653 10.0008 123.387 10.2038 123.992 10.6301C124.23 10.8347 124.415 11.0931 124.533 11.3836C124.65 11.6742 124.698 11.9887 124.67 12.3011C124.67 13.8329 123.679 14.5988 121.811 14.5988H113.696L113.6 18.8808H121.073C122.941 18.8808 123.862 19.638 123.827 21.1524C123.84 21.4698 123.779 21.786 123.65 22.0759C123.52 22.3659 123.325 22.6217 123.08 22.8234C122.464 23.2471 121.723 23.4496 120.977 23.3978H113.522L113.418 28.0628H121.533C123.401 28.0628 124.322 28.8287 124.288 30.3605C124.299 30.6764 124.237 30.9906 124.107 31.2788C123.978 31.567 123.784 31.8216 123.54 32.0228C122.926 32.4504 122.184 32.6532 121.438 32.5972H110.272C109.907 32.6237 109.54 32.5756 109.193 32.4559C108.847 32.3363 108.528 32.1475 108.256 31.901Z" fill="#262A45"/>
<path d="M148.139 10.6908C148.4 10.9702 148.601 11.3009 148.728 11.6619C148.855 12.0229 148.906 12.4065 148.878 12.7882L148.504 29.8989C148.521 30.2903 148.455 30.6809 148.311 31.0452C148.167 31.4095 147.949 31.7394 147.669 32.0135C147.39 32.2876 147.056 32.4999 146.689 32.6364C146.323 32.7729 145.932 32.8306 145.541 32.8058C145.157 32.8264 144.773 32.7675 144.413 32.6327C144.052 32.498 143.724 32.2902 143.447 32.0225C143.183 31.7397 142.981 31.4047 142.854 31.039C142.726 30.6733 142.677 30.2849 142.709 29.8989L142.848 23.502H133.568L133.429 29.9076C133.444 30.2987 133.377 30.6886 133.233 31.0523C133.089 31.416 132.87 31.7453 132.591 32.0192C132.312 32.293 131.978 32.5053 131.612 32.6422C131.246 32.7792 130.856 32.8379 130.466 32.8145C130.078 32.8512 129.686 32.8003 129.321 32.6656C128.955 32.5309 128.624 32.3158 128.352 32.036C128.081 31.7563 127.875 31.4191 127.75 31.0493C127.626 30.6795 127.586 30.2864 127.633 29.8989L128.007 12.7882C128.001 12.3978 128.075 12.0102 128.225 11.6495C128.374 11.2888 128.596 10.9625 128.876 10.6908C129.161 10.4254 129.496 10.2194 129.861 10.085C130.227 9.9505 130.615 9.89016 131.004 9.90745C131.388 9.88788 131.772 9.94728 132.132 10.082C132.492 10.2167 132.821 10.4239 133.098 10.6908C133.361 10.9696 133.562 11.3002 133.689 11.6614C133.816 12.0226 133.866 12.4064 133.837 12.7882L133.707 18.8806H142.987L143.117 12.7882C143.112 12.3991 143.187 12.0131 143.336 11.6539C143.485 11.2947 143.707 10.9699 143.986 10.6994C144.271 10.4341 144.606 10.2281 144.972 10.0937C145.337 9.9592 145.726 9.89886 146.115 9.91615C146.486 9.90489 146.857 9.96755 147.204 10.1005C147.552 10.2335 147.87 10.4341 148.139 10.6908Z" fill="#262A45"/>
<path d="M175.458 30.1949C175.453 30.5392 175.372 30.8783 175.222 31.1881C175.072 31.498 174.856 31.7709 174.589 31.9877C174.044 32.4614 173.346 32.7212 172.625 32.7188C172.148 32.7261 171.68 32.5929 171.278 32.3359C170.856 32.057 170.529 31.6564 170.34 31.187L168.932 27.9581H158.505L156.967 31.1783C156.747 31.652 156.398 32.0534 155.959 32.3359C155.542 32.5874 155.065 32.7198 154.578 32.7188C153.855 32.718 153.158 32.4552 152.614 31.979C152.337 31.7711 152.114 31.5 151.963 31.1881C151.812 30.8763 151.737 30.5327 151.745 30.1862C151.762 29.7735 151.869 29.3695 152.058 29.0025L160.947 11.6655C161.222 11.1032 161.666 10.6407 162.215 10.3427C162.772 10.0402 163.394 9.88184 164.027 9.88184C164.66 9.88184 165.283 10.0402 165.839 10.3427C166.379 10.6436 166.809 11.1104 167.064 11.6743L175.214 29.0112C175.383 29.3826 175.466 29.7871 175.458 30.1949ZM167.038 23.5368L163.971 16.4001L160.591 23.5368H167.038Z" fill="#262A45"/>
<path d="M181.688 32.0051C181.415 31.7319 181.204 31.4033 181.069 31.0414C180.934 30.6796 180.879 30.2929 180.906 29.9076L181.245 14.8422H176.7C175.952 14.8998 175.207 14.6901 174.597 14.2504C174.36 14.017 174.178 13.733 174.066 13.4197C173.953 13.1063 173.912 12.7715 173.946 12.4401C173.926 12.1056 173.982 11.771 174.108 11.4608C174.234 11.1506 174.428 10.8726 174.676 10.6472C175.3 10.2203 176.05 10.0178 176.804 10.0728H191.88C192.623 10.0145 193.364 10.2176 193.974 10.6472C194.213 10.876 194.395 11.1567 194.508 11.4676C194.621 11.7785 194.662 12.1112 194.626 12.4401C194.644 12.7757 194.588 13.1112 194.462 13.4227C194.336 13.7341 194.143 14.0138 193.896 14.2417C193.281 14.6826 192.53 14.8922 191.776 14.8335H187.231L186.901 29.8989C186.907 30.2895 186.833 30.6771 186.684 31.0379C186.534 31.3987 186.313 31.7249 186.032 31.9964C185.432 32.5336 184.647 32.8147 183.843 32.7797C183.45 32.8012 183.057 32.7437 182.687 32.6107C182.317 32.4776 181.977 32.2717 181.688 32.0051Z" fill="#262A45"/>
<path d="M101.357 58.0107C101.601 58.2246 101.789 58.4952 101.904 58.7987C102.019 59.1021 102.058 59.4293 102.018 59.7514C102.032 60.0768 101.975 60.4014 101.851 60.7022C101.726 61.003 101.537 61.2727 101.297 61.492C100.667 61.9135 99.9138 62.1097 99.159 62.0491H86.2992C85.956 62.0678 85.6126 62.0148 85.291 61.8935C84.9694 61.7721 84.6765 61.585 84.431 61.3441C84.2095 61.1139 84.0374 60.8407 83.9253 60.5413C83.8132 60.242 83.7635 59.9228 83.7793 59.6034C83.8147 58.8434 84.0918 58.1145 84.57 57.5233L94.7797 44.1203H86.9595C86.2063 44.1799 85.4554 43.9803 84.8307 43.5546C84.5902 43.3384 84.4054 43.0673 84.2919 42.7642C84.1785 42.4612 84.1397 42.1352 84.179 41.8139C84.1642 41.4877 84.222 41.1623 84.3483 40.8612C84.4745 40.5602 84.666 40.291 84.9089 40.0732C85.5458 39.653 86.303 39.4542 87.0638 39.5075H99.4284C99.766 39.4896 100.104 39.5414 100.421 39.6597C100.738 39.7779 101.027 39.9602 101.27 40.1951C101.495 40.4234 101.668 40.6963 101.781 40.9962C101.893 41.296 101.941 41.6161 101.922 41.9357C101.891 42.7057 101.617 43.4459 101.14 44.0506L90.9304 57.4624H99.272C100.009 57.4063 100.743 57.5994 101.357 58.0107Z" fill="#262A45"/>
<path d="M106.171 61.4749C105.909 61.1909 105.708 60.8557 105.581 60.4903C105.453 60.1248 105.403 59.7371 105.432 59.3513L105.806 42.2406C105.803 41.8504 105.878 41.4635 106.027 41.1031C106.176 40.7426 106.397 40.4161 106.675 40.1431C106.966 39.8755 107.307 39.6684 107.678 39.5339C108.05 39.3994 108.444 39.3403 108.839 39.3598C109.235 39.3371 109.631 39.3948 110.005 39.5294C110.378 39.664 110.72 39.8727 111.011 40.1431C111.278 40.4192 111.483 40.7489 111.614 41.1105C111.744 41.4721 111.796 41.8573 111.767 42.2406L111.393 59.3513C111.402 59.7473 111.329 60.1408 111.179 60.5076C111.03 60.8743 110.807 61.2065 110.524 61.4836C109.92 62.0259 109.127 62.3074 108.317 62.2669C107.924 62.2921 107.53 62.2347 107.161 62.0983C106.791 61.9619 106.454 61.7495 106.171 61.4749Z" fill="#262A45"/>
<path d="M136.183 40.1431C136.443 40.4199 136.643 40.7476 136.77 41.1056C136.897 41.4636 136.949 41.8442 136.922 42.2232L136.548 59.3338C136.563 60.1188 136.27 60.8783 135.731 61.4487C135.467 61.712 135.152 61.9181 134.805 62.0544C134.459 62.1906 134.088 62.254 133.715 62.2407C133.303 62.2721 132.889 62.2012 132.51 62.0343C132.131 61.8673 131.799 61.6094 131.543 61.2834L121.985 49.1597L121.759 59.3338C121.779 60.1122 121.495 60.8677 120.969 61.44C120.711 61.7095 120.398 61.9204 120.052 62.0585C119.705 62.1966 119.334 62.2588 118.961 62.2407C118.593 62.255 118.227 62.191 117.885 62.053C117.544 61.915 117.235 61.7061 116.98 61.44C116.723 61.1549 116.525 60.8206 116.4 60.4572C116.274 60.0938 116.224 59.7087 116.25 59.3251L116.633 42.2145C116.625 41.8309 116.693 41.4496 116.833 41.0926C116.974 40.7356 117.183 40.41 117.449 40.1344C117.713 39.8696 118.027 39.6618 118.374 39.5241C118.721 39.3863 119.092 39.3215 119.465 39.3337C119.873 39.312 120.279 39.3884 120.651 39.5565C121.023 39.7246 121.349 39.9794 121.603 40.2997L131.161 52.3886L131.387 42.2232C131.367 41.4458 131.654 40.692 132.186 40.1257C132.448 39.8649 132.76 39.6608 133.104 39.5261C133.448 39.3913 133.816 39.3288 134.185 39.3424C134.555 39.3295 134.924 39.394 135.268 39.5319C135.612 39.6697 135.924 39.8779 136.183 40.1431Z" fill="#262A45"/>
<path d="M142.144 61.3792C141.897 61.1085 141.71 60.7888 141.595 60.4409C141.479 60.0931 141.439 59.7248 141.475 59.36L141.857 42.2493C141.842 41.8799 141.9 41.5112 142.028 41.1645C142.156 40.8178 142.352 40.5002 142.604 40.2302C142.883 39.9831 143.208 39.7937 143.559 39.6727C143.911 39.5517 144.284 39.5016 144.655 39.5252H151.154C153.386 39.4637 155.6 39.9288 157.619 40.8829C159.347 41.7281 160.774 43.0866 161.703 44.7733C162.672 46.6235 163.128 48.7004 163.024 50.7873C163.039 52.9206 162.496 55.0208 161.451 56.8796C160.461 58.5746 158.983 59.9306 157.211 60.7699C155.158 61.7125 152.917 62.171 150.659 62.1103H144.151C143.784 62.1324 143.417 62.079 143.072 61.9532C142.726 61.8275 142.411 61.6321 142.144 61.3792ZM150.346 57.3496C152.162 57.4818 153.959 56.9048 155.36 55.7394C156.49 54.6602 157.069 53.0124 157.098 50.796C157.15 48.5766 156.629 46.9317 155.551 45.8699C154.474 44.8081 152.823 44.2685 150.607 44.2685H147.714L147.418 57.3234L150.346 57.3496Z" fill="#262A45"/>
<path d="M188.535 59.6646C188.528 60.0086 188.447 60.3471 188.297 60.6567C188.147 60.9663 187.932 61.2395 187.666 61.4575C187.121 61.9312 186.423 62.1909 185.702 62.1886C185.211 62.1975 184.728 62.0556 184.32 61.7817C183.911 61.5079 183.596 61.1153 183.417 60.6568L182.035 57.4192H171.608L170.001 60.6481C169.795 61.1075 169.46 61.4974 169.038 61.7707C168.615 62.0441 168.123 62.1892 167.62 62.1886C166.895 62.1898 166.194 61.9269 165.648 61.4488C165.372 61.2394 165.15 60.968 164.999 60.6564C164.848 60.3449 164.773 60.0021 164.779 59.6559C164.796 59.2432 164.902 58.8392 165.092 58.4722L173.981 41.1353C174.259 40.5749 174.701 40.1132 175.249 39.8124C175.805 39.51 176.428 39.3516 177.061 39.3516C177.694 39.3516 178.316 39.51 178.872 39.8124C179.414 40.1075 179.844 40.5722 180.098 41.1353L188.248 58.481C188.431 58.849 188.529 59.2535 188.535 59.6646ZM180.106 53.0066L177.048 45.8699L173.668 53.0066H180.106Z" fill="#262A45"/>
<path d="M210.892 49.9603C211.098 50.1662 211.258 50.4143 211.36 50.6877C211.462 50.961 211.504 51.2532 211.483 51.5443L211.361 57.1144C211.367 57.9389 211.268 58.7608 211.066 59.56C210.927 60.084 210.622 60.5485 210.197 60.8829C209.62 61.2866 208.976 61.5815 208.294 61.7533C207.372 61.9757 206.438 62.1414 205.496 62.2493C204.547 62.3593 203.592 62.4174 202.637 62.4234C200.425 62.4756 198.233 61.9982 196.242 61.0309C194.501 60.1503 193.075 58.7519 192.158 57.0274C191.192 55.1138 190.74 52.9811 190.846 50.8393C190.852 48.7075 191.396 46.6118 192.427 44.747C193.415 43.0297 194.879 41.6361 196.642 40.7348C198.591 39.762 200.747 39.2782 202.924 39.3249C204.286 39.3085 205.644 39.4872 206.956 39.8558C208.135 40.21 209.248 40.7569 210.249 41.4746C210.576 41.6939 210.843 41.9935 211.022 42.3449C211.19 42.7035 211.264 43.0986 211.239 43.4937C211.241 44.1036 211.036 44.6959 210.657 45.1735C210.5 45.3811 210.298 45.5507 210.066 45.6698C209.835 45.7888 209.579 45.8541 209.319 45.861C209.023 45.8645 208.728 45.8144 208.45 45.7131C208.124 45.5742 207.81 45.4082 207.512 45.217C206.811 44.8255 206.067 44.516 205.296 44.2944C204.558 44.09 203.794 43.9904 203.028 43.9985C202.182 43.9413 201.334 44.0672 200.541 44.3675C199.748 44.6679 199.028 45.1357 198.432 45.7392C197.418 46.8996 196.882 48.6403 196.824 50.9612C196.766 53.282 197.247 55.0691 198.267 56.3224C199.286 57.4828 200.867 58.0631 203.011 58.0631C204.041 58.0632 205.069 57.9582 206.078 57.7497L206.174 53.5548H203.854C203.261 53.5963 202.675 53.406 202.22 53.0239C202.027 52.83 201.878 52.5967 201.784 52.3398C201.689 52.0829 201.651 51.8085 201.673 51.5356C201.664 51.2591 201.714 50.9839 201.821 50.7287C201.927 50.4734 202.087 50.244 202.29 50.056C202.753 49.6767 203.343 49.4871 203.94 49.5251H209.258C209.838 49.461 210.42 49.6162 210.892 49.9603Z" fill="#262A45"/>
<path d="M216.722 61.5095C216.46 61.2255 216.259 60.8903 216.132 60.5249C216.004 60.1595 215.954 59.7718 215.984 59.3859L216.357 42.2666C216.354 41.8777 216.43 41.4923 216.579 41.1334C216.728 40.7745 216.948 40.4495 217.226 40.1778C217.517 39.9101 217.858 39.703 218.229 39.5686C218.601 39.4341 218.995 39.3749 219.39 39.3945C219.786 39.3718 220.182 39.4295 220.556 39.5641C220.929 39.6987 221.271 39.9074 221.562 40.1778C221.829 40.4539 222.034 40.7836 222.165 41.1452C222.295 41.5068 222.347 41.892 222.318 42.2753L221.944 59.3859C221.953 59.7807 221.88 60.173 221.731 60.5384C221.581 60.9038 221.358 61.2344 221.075 61.5095C220.472 62.0519 219.678 62.3334 218.868 62.2928C218.476 62.3176 218.083 62.2608 217.713 62.126C217.344 61.9912 217.007 61.7813 216.722 61.5095Z" fill="#262A45"/>
<path d="M44.2353 66.4616C61.0312 66.4616 74.6471 52.8235 74.6471 36.0001C74.6471 19.1767 61.0312 5.53857 44.2353 5.53857C27.4393 5.53857 13.8235 19.1767 13.8235 36.0001C13.8235 52.8235 27.4393 66.4616 44.2353 66.4616Z" fill="white"/>
<path d="M37.1798 52.4756V52.8934C37.5795 53.0501 37.9792 53.2067 38.3876 53.346C37.9792 53.0675 37.5708 52.7802 37.1798 52.4756ZM37.1798 32.0751H28.0041C27.7782 33.2239 27.4915 34.4685 27.1352 35.9481C26.3863 38.7121 26.4466 41.6335 27.309 44.3642H31.0279C30.5612 43.0119 30.2208 41.6192 30.0113 40.204C31.7491 42.9281 33.4869 44.1553 34.9467 44.3642H35.8938C36.5634 44.2171 37.1783 43.8846 37.6684 43.4045C38.1585 42.9244 38.504 42.316 38.6656 41.6487C39.465 39.2118 38.8741 35.5564 37.1363 32.0751H37.1798ZM36.3109 42.0839C35.9095 42.3138 35.4492 42.4193 34.988 42.3871C34.5268 42.3549 34.0855 42.1864 33.7199 41.903C33.3543 41.6196 33.0808 41.2339 32.9341 40.7948C32.7873 40.3557 32.7738 39.8829 32.8954 39.4361C33.0169 38.9893 33.268 38.5887 33.6169 38.2848C33.9657 37.981 34.3967 37.7876 34.8553 37.7291C35.3139 37.6707 35.7796 37.7497 36.1933 37.9563C36.6071 38.1629 36.9504 38.4878 37.1798 38.8898C37.3308 39.16 37.4266 39.4577 37.4616 39.7654C37.4966 40.0731 37.47 40.3848 37.3835 40.6821C37.2969 40.9794 37.1521 41.2565 36.9575 41.4972C36.7629 41.7379 36.5224 41.9373 36.25 42.0839H36.3109ZM66.7226 33.8332C66.1553 33.2616 65.4771 32.8123 64.73 32.513C63.9829 32.2136 63.1825 32.0706 62.3781 32.0925H49.3445V19.0376C49.3586 18.2336 49.2109 17.4351 48.9103 16.6895C48.6096 15.944 48.1621 15.2667 47.5945 14.6981C47.0268 14.1296 46.3507 13.6813 45.6063 13.3802C44.862 13.079 44.0648 12.9311 43.2621 12.9453C42.4595 12.9311 41.6622 13.079 40.9179 13.3802C40.1736 13.6813 39.4974 14.1296 38.9298 14.6981C38.3621 15.2667 37.9147 15.944 37.614 16.6895C37.3133 17.4351 37.1656 18.2336 37.1798 19.0376V29.0115C43.21 33.6591 43.8617 39.4555 42.5409 46.5835C41.0551 54.5209 42.0457 58.098 45.2259 63.1198C46.1425 62.8379 46.9733 62.329 47.6414 61.6402C48.2067 61.068 48.6518 60.3881 48.9503 59.6406C49.2488 58.8932 49.3946 58.0934 49.3792 57.2886V44.3642H62.4128C63.2233 44.3846 64.0289 44.2339 64.7774 43.922C65.5259 43.6102 66.2005 43.144 66.7574 42.5539C67.3223 41.9814 67.7671 41.3014 68.0655 40.554C68.364 39.8067 68.5101 39.007 68.4952 38.2022C68.5082 37.3865 68.352 36.577 68.0364 35.8249C67.7208 35.0729 67.2527 34.3946 66.6618 33.8332H66.7226Z" fill="#262A45"/>
<path fill-rule="evenodd" clip-rule="evenodd" d="M46.1382 33.6937C44.244 30.2124 41.0464 27.8538 37.1798 25.7911C34.573 24.4247 31.7491 23.1802 28.7774 21.8398C28.9892 25.2709 28.729 28.7149 28.0041 32.0749C27.7782 33.2238 27.4915 34.4683 27.1352 35.9479C26.3863 38.7119 26.4466 41.6333 27.309 44.364C28.8122 48.6112 32.6441 51.1177 37.1537 52.8932C37.5534 53.0499 37.9531 53.2065 38.3615 53.3458C37.9531 53.0673 37.5447 52.7801 37.1537 52.4754C34.3344 50.4699 32.2086 47.6349 31.0714 44.364C30.6046 43.0118 30.2643 41.6191 30.0547 40.2038C31.7925 42.9279 33.5304 44.1551 34.9901 44.364C35.3037 44.4162 35.6237 44.4162 35.9372 44.364C36.6069 44.217 37.2218 43.8844 37.7118 43.4043C38.2019 42.9242 38.5475 42.3158 38.709 41.6485C39.4824 39.2116 38.8915 35.5562 37.1537 32.0749C36.0705 29.9012 34.5979 27.9453 32.8092 26.3046C34.3419 27.0629 35.797 27.9695 37.1537 29.0114C43.1839 33.6589 43.8356 39.4553 42.5149 46.5833C41.029 54.5207 42.0196 58.0978 45.1998 63.1196C45.4807 63.0357 45.7539 62.928 46.0166 62.7976C42.0978 50.1256 51.7253 44.0245 46.1382 33.6937ZM36.25 42.0837C35.8487 42.3136 35.3884 42.4191 34.9272 42.3869C34.466 42.3547 34.0247 42.1863 33.6591 41.9028C33.2935 41.6194 33.02 41.2337 32.8732 40.7946C32.7265 40.3555 32.713 39.8827 32.8345 39.4359C32.9561 38.9891 33.2072 38.5885 33.556 38.2846C33.9049 37.9808 34.3359 37.7874 34.7945 37.7289C35.2531 37.6705 35.7187 37.7495 36.1325 37.9561C36.5462 38.1627 36.8895 38.4876 37.1189 38.8896C37.2724 39.1562 37.3717 39.4506 37.411 39.7558C37.4504 40.0609 37.4291 40.3709 37.3483 40.6678C37.2676 40.9647 37.1289 41.2427 36.9404 41.4857C36.7519 41.7287 36.5173 41.9319 36.25 42.0837Z" fill="#3FD182"/>
</svg>
