<svg width="40" height="40" viewBox="0 0 40 40" fill="none" xmlns="http://www.w3.org/2000/svg">
<path d="M36.081 27.2773L30.4251 26.6315C29.7601 26.5534 29.086 26.627 28.4535 26.8469C27.821 27.0667 27.2465 27.427 26.7733 27.9008L22.6761 31.9979C16.3549 28.783 11.217 23.6451 8.00209 17.3239L12.1215 13.2044C13.079 12.2469 13.5466 10.9109 13.3907 9.55262L12.745 3.94129C12.6188 2.85504 12.0975 1.85316 11.2803 1.12638C10.4632 0.399606 9.40739 -0.00129652 8.31383 3.15011e-06H4.46161C1.94542 3.15011e-06 -0.14769 2.09312 0.00817979 4.60931C1.18834 23.6255 16.3968 38.8117 35.3907 39.9918C37.9069 40.1477 40 38.0546 40 35.5384V31.6862C40.0223 29.4372 38.33 27.5445 36.081 27.2773Z" fill="#52D695"/>
</svg>
