<svg width="125" height="106" viewBox="0 0 125 106" fill="none" xmlns="http://www.w3.org/2000/svg">
<path d="M99.5939 55.1652L98.3799 54.4399C98.4334 54.3477 103.451 44.7953 105.381 37.6929C108.253 27.1029 105.562 20.0802 100.861 18.4388C99.2467 17.8743 96.3639 18.1974 94.3057 19.2345C91.7431 20.5256 89.2801 23.0928 88.748 25.4695L86.7636 24.8578C87.6106 22.1101 90.3732 19.1673 93.6202 17.5272C96.3726 16.1358 99.1949 15.819 101.548 16.6447C104.747 17.7644 106.92 20.4485 107.853 24.4139C108.709 28.0627 108.473 32.762 107.172 38.0109C105.282 45.552 99.8225 54.776 99.5939 55.1652Z" fill="#D9F3F4"/>
<path d="M96.2827 17.5121C93.0491 18.1869 88.069 21.5994 86.7636 24.8578L88.7481 25.4695C89.2702 23.098 91.7384 20.5409 94.3058 19.2345C96.3739 18.1922 99.2414 17.8643 100.861 18.4388C102.364 18.9605 103.651 20.0428 104.626 21.5971C103.363 18.4578 100.507 16.633 96.2827 17.5121Z" fill="#C0DDDD"/>
<path d="M43.2565 84.9526L43.3407 83.5409C43.2344 83.5333 32.5149 82.3015 25.5584 79.8979C15.1896 76.3086 10.9009 70.1307 12.1912 65.3215C12.6337 63.6694 14.5239 61.4689 16.5398 60.3519C19.0497 58.961 22.558 58.3709 24.8218 59.2694L25.4335 57.285C22.6859 56.4379 18.6984 57.0641 15.5148 58.8241C12.8152 60.3153 10.9643 62.4694 10.3218 64.879C9.46099 68.1322 10.4457 71.4446 13.207 74.4438C15.7405 77.2056 19.7575 79.6558 24.8276 81.5364C32.1193 84.2355 42.8061 84.9224 43.2565 84.9526Z" fill="#D9F3F4"/>
<path d="M13.528 74.7851C16.0786 77.4101 19.9665 79.7369 24.8124 81.5317C32.1093 84.2408 42.8062 84.9224 43.2565 84.9525L43.3407 83.5409C43.2344 83.5332 22.3064 83.3166 13.528 74.7851Z" fill="#C0DDDD"/>
<path d="M96.2966 42.1385C94.3583 35.3311 90.6671 25.4259 88.9415 23.9746C87.2205 22.508 76.7267 23.2012 67.356 23.2878C58.6271 23.3801 50.2468 23.9141 47.7304 25.2445C45.2141 26.575 40.0543 33.2001 35.0734 40.3567C29.7204 48.0422 23.2444 56.3343 23.4874 58.5822C23.7305 60.8302 29.8282 69.4631 34.3574 74.8877C38.8919 80.3224 40.8113 81.8502 41.7478 83.0415C42.6844 84.2329 43.0828 87.0887 44.3069 87.3742C45.5311 87.6596 47.7348 85.6895 48.7154 85.7076C49.706 85.7205 56.4334 86.2649 64.3228 84.585C70.1657 83.3355 76.7682 80.164 76.7682 80.164C76.7682 80.164 83.1067 76.4932 87.429 72.368C93.2594 66.7938 96.5973 60.9276 97.1444 60.1017C97.6915 59.2757 100.56 58.5638 101.004 57.3967C101.457 56.2243 99.3213 54.2871 98.8641 52.8423C98.4168 51.3923 98.2296 48.9359 96.2966 42.1385Z" fill="#D9F3F4"/>
<path d="M96.2966 42.1385C94.3583 35.3311 90.6671 25.4259 88.9415 23.9746C87.6379 22.8623 81.2542 22.9922 74.1489 23.1587C84.7838 28.8943 90.3961 43.7379 85.6648 58.3263C80.9288 72.93 68.1297 83.5688 49.6966 85.751C52.0231 85.8498 57.7812 85.9867 64.3281 84.595C70.1709 83.3455 76.7734 80.174 76.7734 80.174C76.7734 80.174 83.112 76.5032 87.4342 72.378C93.2647 66.8038 96.6025 60.9376 97.1497 60.1117C97.6968 59.2857 100.566 58.5738 101.009 57.4067C101.462 56.2342 99.3266 54.2971 98.8693 52.8523C98.4168 51.3923 98.2296 48.9359 96.2966 42.1385Z" fill="#C0DDDD"/>
<path d="M34.164 46.5871C34.5036 46.1903 37.6569 41.7633 40.225 38.0417C42.7984 34.3302 47.3516 28.8052 49.072 27.8061C50.8764 26.9415 57.9961 26.2946 62.5123 26.2577C67.0286 26.2207 72.4627 26.1074 72.9871 26.0601C73.1785 26.0355 73.0115 24.2456 72.9017 23.1921C71.0484 23.2393 69.1646 23.277 67.3361 23.2984C58.6271 23.3801 50.2468 23.9141 47.7305 25.2445C45.2141 26.575 40.0543 33.2001 35.0734 40.3567C34.0215 41.8711 32.9243 43.3967 31.8519 44.8965C32.6507 45.5857 34.0359 46.7315 34.164 46.5871Z" fill="#F0FFFF"/>
<path d="M84.7838 28.8943C82.2884 27.3645 53.6593 28.8943 50.3333 30.1673C47.4185 32.194 30.035 54.9926 29.8843 57.9215C29.7436 60.8451 32.048 65.9768 36.158 72.3003C39.7764 77.8871 43.0049 81.2142 45.8417 82.2058C48.6786 83.1973 59.4729 82.8307 74.4927 75.8603C88.7047 67.3621 95.0905 58.6578 95.8684 55.755C96.6462 52.8523 95.7144 48.3109 93.1345 42.175C90.228 35.2279 87.2792 30.4242 84.7838 28.8943Z" fill="#5AD6CE"/>
<path d="M95.8736 55.7651C96.6515 52.8623 95.7196 48.3209 93.1397 42.185C90.218 35.2332 87.2845 30.4342 84.789 28.9043C84.2819 28.5975 82.7264 28.4106 80.5215 28.3243C86.7949 35.5737 89.3391 47.031 85.6701 58.3363C83.328 65.5542 79.0187 71.8063 73.0278 76.5454C73.513 76.3272 74.0081 76.1038 74.5032 75.8803C88.72 67.3669 95.0958 58.6678 95.8736 55.7651Z" fill="#4FC6BA"/>
<path d="M57.957 44.5862C45.6361 51.369 35.0486 61.5027 31.8982 64.9444C36.6373 60.931 52.509 49.8688 58.9496 46.4634C65.3901 43.0581 83.4687 36.1697 89.4538 34.5129C84.8356 35.1787 70.4996 38.2228 57.957 44.5862Z" fill="#2AA79F"/>
<path d="M80.2204 49.0925C75.3595 52.4165 54.6299 63.3769 49.146 65.5226C42.9861 67.9363 39.2179 69.0981 34.6689 69.919C39.6706 69.2293 43.8928 68.9262 51.603 66.4722C60.126 63.7674 72.5877 57.1785 79.6219 51.6577C85.9858 46.6575 88.6288 43.3435 92.0049 39.6036C88.7705 42.9108 85.6834 45.3608 80.2204 49.0925Z" fill="#2AA79F"/>
<path d="M39.4504 76.884C44.87 76.5739 57.7847 76.1339 70.8551 68.9804C84.1261 62.2064 91.7712 51.7757 95.0689 47.4767C80.8442 65.4237 62.3014 75.2279 39.4504 76.884Z" fill="#2AA79F"/>
</svg>
