<svg width="196" height="185" viewBox="0 0 196 185" fill="none" xmlns="http://www.w3.org/2000/svg">
<path d="M105.339 20.2921C88.6181 27.4281 76.5317 46.8552 81.3145 66.5346C63.8518 56.2774 41.7468 62.2575 30.1071 76.1955C17.2019 91.6527 19.43 120.677 46.969 135.182C81.6635 153.473 132.041 134.799 132.041 134.799C132.041 134.799 164.455 91.9517 156.951 53.4552C150.992 22.9151 123.862 12.3953 105.339 20.2921Z" fill="#F23838"/>
<path d="M104.24 22.3188C125.516 23.2961 136.314 43.7414 140.077 58.1533C146.822 83.9788 135.473 109.462 121.069 121.06C111.51 128.769 96.5508 137.78 66.0411 139.744C96.5926 145.484 130 133.079 130 133.079C130 133.079 161.428 91.5961 154.181 54.3299C148.42 24.8001 122.171 14.6518 104.24 22.3188Z" fill="#CC3838"/>
<path d="M134.786 121.497L90.3443 75.3224L98.7015 98.6081L91.8729 103.972L80.5214 94.8568L84.2532 108.66L75.3536 115.273L78.7901 127.086L66.6441 119.982L34.6054 143.79L33.2702 141.993L66.4954 117.304L75.0311 122.275L72.7513 114.392L81.6679 107.766L76.5272 88.7734L91.8899 101.091L96.0227 97.8359L84.632 66.148L128.49 111.678L116.113 80.4338L128.03 71.5784L115.366 43.0993L137.22 63.1967L163.23 43.6328L164.594 45.4341L137.06 66.1316L121.84 52.1293L130.806 72.3046L118.838 81.1977L134.786 121.497Z" fill="#3BF427"/>
<path d="M35.9572 74.2953C33.9842 73.446 26.2896 82.6369 25.2439 92.7021C23.8537 106.128 28.7764 115.231 31.666 113.242C34.4538 111.328 29.8939 105.192 31.4856 92.0371C32.6724 82.5512 38.0189 75.1577 35.9572 74.2953Z" fill="#FF7676"/>
</svg>
