<svg width="160" height="131" viewBox="0 0 160 131" fill="none" xmlns="http://www.w3.org/2000/svg">
<path d="M154.256 22.4088L24.4593 18.1365C23.2488 18.1009 22.1095 18.4094 21.1482 18.9791L3.5603 28.9954L135.695 129.503C135.695 129.503 157.389 116.567 157.769 116.282C159.122 115.238 159.988 113.636 159.988 111.832V28.1172C159.988 25.0435 157.46 22.5156 154.256 22.4088Z" fill="#F44242"/>
<path d="M135.078 35.4396L135.707 129.503C135.707 129.503 157.401 116.567 157.781 116.282C159.134 115.238 160 113.636 160 111.832V28.1172C160 26.788 159.525 25.5538 158.73 24.5806L135.078 35.4396Z" fill="#E53C3C"/>
<path d="M143.089 24.7824L18.205 20.6524L12.734 23.7736L142.97 28.0816C145.593 28.1647 147.658 30.2296 147.658 32.7693V122.37C148.821 121.67 149.984 120.982 151.064 120.329V32.7693C151.064 28.4376 147.563 24.9367 143.089 24.7824Z" fill="#F48787"/>
<path d="M131.802 36.923L158.778 24.6637C158.73 24.5925 158.671 24.5332 158.611 24.462L131.696 36.6857L131.802 36.923Z" fill="#D13737"/>
<path d="M132.242 130.393C132.158 130.393 132.075 130.393 131.992 130.393L6.96633 126.12C3.06186 125.978 0 122.821 0 118.917V35.2141C0 33.244 0.783267 31.4045 2.19552 30.0398C3.60777 28.675 5.471 27.951 7.4529 28.0223L132.479 32.2946C136.383 32.4252 139.433 35.5938 139.433 39.4983V123.189C139.433 125.159 138.65 126.999 137.238 128.363C135.885 129.681 134.117 130.393 132.242 130.393Z" fill="#F44242"/>
<path d="M135.03 32.8405C132.989 50.9625 128.8 78.5785 98.3237 98.7654C60.181 124.032 4.60467 123.213 2.10059 124.008C3.34669 125.254 5.05564 126.049 6.95446 126.109L131.98 130.381C132.064 130.381 132.147 130.381 132.23 130.381C134.105 130.381 135.873 129.669 137.226 128.352C138.638 126.987 139.421 125.147 139.421 123.177V39.4864C139.433 36.4839 137.629 33.9323 135.03 32.8405Z" fill="#E53C3C"/>
<path d="M132.242 130.393C132.158 130.393 132.075 130.393 131.992 130.393L6.96633 126.12C3.06186 125.978 0 122.821 0 118.917V35.2141C0 33.244 0.783267 31.4045 2.19552 30.0398C3.60777 28.675 5.471 27.951 7.4529 28.0223L132.479 32.2946C136.383 32.4252 139.433 35.5938 139.433 39.4983V123.189C139.433 125.159 138.65 126.999 137.238 128.363C135.885 129.681 134.117 130.393 132.242 130.393ZM132.087 127.414C133.238 127.45 134.342 127.034 135.173 126.227C136.004 125.42 136.466 124.34 136.466 123.189V39.4864C136.466 37.196 134.674 35.3327 132.384 35.2615L7.34609 30.9773C6.18306 30.9417 5.09123 31.3571 4.2605 32.1641C3.42976 32.9711 2.96692 34.051 2.96692 35.2022V118.917C2.96692 121.207 4.75894 123.07 7.0494 123.142L132.087 127.414Z" fill="#F48787"/>
<path d="M2.96691 118.917V35.2141C2.96691 34.051 3.42975 32.9711 4.26049 32.1759C5.09122 31.3689 6.18305 30.9536 7.34608 30.9892L132.372 35.2615C134.603 35.3327 136.36 37.101 136.455 39.3203L136.466 38.632C136.466 35.3683 133.642 34.229 131.351 34.146L7.1206 29.8736C5.95756 29.838 4.23675 30.6213 3.40601 31.4283C2.57528 32.2353 1.94629 33.6475 1.94629 34.7987V117.789C1.94629 120.08 2.61088 122.928 7.06126 123.13C4.7708 123.059 2.96691 121.207 2.96691 118.917Z" fill="#DB6B6B"/>
<path d="M136.977 34.051C137.879 35.2497 138.401 36.745 138.401 38.3709V122.074C138.401 124.044 137.879 126.192 136.466 127.556C135.113 128.862 133.737 129.289 131.209 129.277C131.126 129.277 131.043 129.277 130.96 129.277L5.93376 125.005C4.20108 124.946 2.63455 124.293 1.43591 123.237C2.69389 124.922 4.68766 126.037 6.96625 126.12L131.992 130.393C132.075 130.393 132.158 130.393 132.241 130.393C134.117 130.393 135.885 129.681 137.238 128.363C138.65 126.999 139.433 125.159 139.433 123.189V39.4864C139.433 37.3146 138.484 35.3683 136.977 34.051Z" fill="#DB6B6B"/>
<path d="M53.452 5.18885L58.7687 0.892755C59.5164 0.287503 60.4658 -0.0329238 61.439 0.0026792L106.014 1.7591C107.462 1.81843 108.601 3.0052 108.601 4.45306V23.6431L103.106 28.0104L100.555 7.25383L53.452 5.18885Z" fill="#545353"/>
<path d="M56.4664 26.4439L60.9405 22.3732L61.0474 6.58923H54.983V25.174L56.4664 26.4439Z" fill="#545353"/>
<path d="M103.106 28.0104L98.6085 27.9036L98.6441 9.72232L56.7512 8.31007C56.68 8.31007 56.6088 8.3338 56.5495 8.39314C56.4902 8.45248 56.4664 8.51182 56.4664 8.59489V26.4439L51.9686 26.3371L52.0042 8.59489C52.0042 7.30132 52.5145 6.09081 53.452 5.18887C54.3777 4.28693 55.6001 3.81222 56.9055 3.85969L99.8428 5.29568C101.67 5.35502 103.106 6.83848 103.106 8.6661V28.0104Z" fill="#686868"/>
<path d="M87.9395 75.1132H73.7932L83.7977 65.1087L81.8276 63.1387L71.8232 73.1432V58.9969H69.0343V73.1432L59.0298 63.1387L57.0598 65.1087L67.0642 75.1132H52.918V77.9021H67.0642L57.0598 87.9065L59.0298 89.8766L69.0343 79.8721V94.0184H71.8232V79.8721L81.8276 89.8766L83.7977 87.9065L73.7932 77.9021H87.9395V75.1132Z" fill="white"/>
</svg>
