<svg width="70" height="73" viewBox="0 0 70 73" fill="none" xmlns="http://www.w3.org/2000/svg">
<path d="M56.7253 59.7236L56.3299 60.0918L63.2567 67.5312L62.5613 65.9915L56.7253 59.7236Z" fill="#C4C4C4"/>
<path d="M56.7253 59.7236L56.5276 59.9077L62.8501 66.6247L62.5612 65.9915L56.7253 59.7236Z" fill="#AAAAAA"/>
<path d="M51.8215 52.3281L49.3027 54.6734L56.413 60.739C56.5708 60.8791 56.8117 60.8735 56.9655 60.7303L57.3169 60.4031C57.4707 60.2599 57.4934 60.0201 57.3649 59.8526L51.8215 52.3281Z" fill="#88B7AD"/>
<path d="M51.0494 55.3162C50.8957 55.4594 50.9012 55.7003 51.0591 55.8404L56.518 60.5728C56.5594 60.6026 56.6091 60.5973 56.6384 60.57C56.675 60.5359 56.6844 60.4725 56.6362 60.4354L51.5302 55.3334C51.4007 55.1942 51.1812 55.1935 51.0494 55.3162Z" fill="#B4D6CE"/>
<path d="M51.8215 52.3281L50.8404 53.2417L57.3169 60.4031C57.4707 60.2599 57.4934 60.02 57.3649 59.8526L51.8215 52.3281Z" fill="#6A9B8F"/>
<path d="M26.4551 21.0471L19.9091 27.1421L47.3503 56.6142C47.8549 57.156 48.7032 57.1863 49.2451 56.6818L53.8361 52.4071C54.378 51.9026 54.4083 51.0542 53.9038 50.5123L26.4625 21.0403L26.4551 21.0471Z" fill="#C5F8F9"/>
<path d="M48.4909 47.2681L46.7702 48.8703C47.312 48.3658 47.3423 47.5174 46.8378 46.9755L24.7621 23.2661L26.4828 21.6639L48.5585 45.3734C49.0631 45.9152 49.0328 46.7636 48.4909 47.2681Z" fill="#97D9DB"/>
<path d="M24.9951 32.6045L47.3436 56.6068C47.8481 57.1487 48.6965 57.179 49.2383 56.6744L53.8294 52.3997C54.3712 51.8952 54.4015 51.0468 53.897 50.505L31.5485 26.5027L24.9951 32.6045Z" fill="#90C1E1"/>
<path d="M53.2564 52.3864L51.5357 53.9885C52.0776 53.484 52.1078 52.6356 51.6033 52.0938L29.5276 28.3844L31.2483 26.7822L53.324 50.4916C53.8286 51.0335 53.7983 51.8819 53.2564 52.3864Z" fill="#75A9C6"/>
<path d="M8.0253 5.07055L5.23905 7.56911L20.5171 25.9745L25.2473 21.5703L8.0253 5.07055Z" fill="#E4F0F0"/>
<path d="M6.68886 6.21921L6.52777 6.3692L22.8016 23.8474L22.9627 23.6974L6.68886 6.21921Z" fill="#BDD1D0"/>
<path d="M7.54912 7.30469C9.89462 5.12081 11.3748 2.89802 10.8552 2.33995C10.3356 1.78188 8.01294 3.09987 5.66744 5.28375C3.32194 7.46763 1.84176 9.69042 2.36138 10.2485C2.88099 10.8066 5.20362 9.48857 7.54912 7.30469Z" fill="#E4F0F0"/>
<path d="M9.39807 2.90382C9.09809 2.58164 7.42482 3.6475 5.66748 5.28375C3.91014 6.92 2.72774 8.51305 3.02772 8.83523C3.3277 9.15741 5.00097 8.09156 6.75831 6.45531C8.51565 4.81906 9.69805 3.226 9.39807 2.90382Z" fill="#BDD1D0"/>
<path d="M26.7517 23.4504L22.2852 27.6092C21.9337 27.9364 21.914 28.4879 22.2413 28.8393L24.8047 31.5925C25.132 31.944 25.6834 31.9636 26.0349 31.6364L30.5015 27.4776C30.8529 27.1503 30.8726 26.5989 30.5454 26.2474L27.9819 23.4943C27.6547 23.1428 27.1032 23.1231 26.7517 23.4504Z" fill="#5A5B5B"/>
<path d="M30.3111 27.6549L28.627 29.2229C28.9419 28.9298 28.9322 28.4056 28.605 28.0541L26.0415 25.3009C25.7143 24.9495 25.1921 24.9025 24.8773 25.1957L26.5614 23.6276C26.8762 23.3345 27.3984 23.3814 27.7257 23.7329L30.2891 26.486C30.6237 26.8307 30.6333 27.3549 30.3111 27.6549Z" fill="#4C4C4C"/>
<path d="M27.153 18.9483L17.7659 27.6886C17.2314 28.1863 17.1943 29.0274 17.6988 29.5692L18.0465 29.9426C18.5442 30.4772 19.4603 30.5948 20.0021 30.0903L29.3966 21.3432C29.9311 20.8455 29.8932 19.9239 29.3887 19.382L29.041 19.0086C28.536 18.4809 27.6876 18.4506 27.153 18.9483Z" fill="#E6FFFF"/>
<path d="M27.153 18.9483L17.7659 27.6886C17.2314 28.1863 17.1943 29.0274 17.6988 29.5692L17.9715 29.8621C18.4692 30.3966 19.3103 30.4337 19.8521 29.9292L29.2466 21.1821C29.7811 20.6844 29.8182 19.8433 29.3137 19.3015L29.041 19.0086C28.536 18.4809 27.6876 18.4506 27.153 18.9483Z" fill="#C5F8F9"/>
<path d="M28.734 21.6593L26.552 23.691C27.0865 23.1933 27.1236 22.3522 26.6191 21.8104L26.3464 21.5175C25.8487 20.983 25.0076 20.9459 24.4658 21.4504L26.6478 19.4187C27.1823 18.921 28.0239 18.944 28.5284 19.4858L28.8011 19.7787C29.2988 20.3132 29.2685 21.1616 28.734 21.6593Z" fill="#97D9DB"/>
<path d="M53.8221 52.4066L49.2384 56.6745C48.6966 57.179 47.8482 57.1487 47.3436 56.6068L47.03 56.27L53.5761 50.175L53.8897 50.5118C54.3942 51.0537 54.364 51.9021 53.8221 52.4066Z" fill="#C5F8F9"/>
<path d="M53.2564 52.3864L51.5357 53.9885C52.0776 53.484 52.1078 52.6356 51.6033 52.0938L51.5624 52.0499L53.2831 50.4477L53.3241 50.4916C53.8286 51.0335 53.7983 51.8819 53.2564 52.3864Z" fill="#97D9DB"/>
<path d="M51.7967 48.2639L49.2705 50.616L49.4205 50.7771L51.9467 48.425L51.7967 48.2639Z" fill="#406F89"/>
<path d="M50.4808 46.8507L49.0676 48.1665L49.2176 48.3276L50.6308 47.0118L50.4808 46.8507Z" fill="#406F89"/>
<path d="M48.9468 45.2032L47.5336 46.519L47.6836 46.6801L49.0968 45.3643L48.9468 45.2032Z" fill="#406F89"/>
<path d="M47.4061 43.5484L45.9929 44.8642L46.1428 45.0253L47.556 43.7095L47.4061 43.5484Z" fill="#406F89"/>
<path d="M45.8721 41.9009L44.4589 43.2167L44.6089 43.3778L46.0221 42.062L45.8721 41.9009Z" fill="#406F89"/>
<path d="M44.7812 40.7293L42.2551 43.0814L42.4051 43.2425L44.9312 40.8904L44.7812 40.7293Z" fill="#406F89"/>
<path d="M43.1382 38.9647L41.725 40.2805L41.875 40.4416L43.2882 39.1257L43.1382 38.9647Z" fill="#406F89"/>
<path d="M41.5974 37.3098L40.1842 38.6256L40.3342 38.7867L41.7474 37.4709L41.5974 37.3098Z" fill="#406F89"/>
<path d="M40.0634 35.6623L38.6502 36.9781L38.8002 37.1392L40.2134 35.8234L40.0634 35.6623Z" fill="#406F89"/>
<path d="M38.5294 34.0148L37.1162 35.3306L37.2662 35.4917L38.6794 34.1759L38.5294 34.0148Z" fill="#406F89"/>
<path d="M37.4386 32.8432L34.9124 35.1953L35.0624 35.3564L37.5886 33.0043L37.4386 32.8432Z" fill="#406F89"/>
<path d="M26.0811 32.1265C25.8468 32.3447 25.841 32.7055 26.0523 32.9325L46.71 55.1189C46.9281 55.3532 47.289 55.359 47.5159 55.1476C47.7503 54.9295 47.7561 54.5687 47.5447 54.3417L26.887 32.1553C26.6689 31.9209 26.3081 31.9151 26.0811 32.1265Z" fill="#C6E6F7"/>
</svg>
